<svg xmlns="http://www.w3.org/2000/svg" viewBox="0 0 800 450" width="800" height="450" role="img" aria-label="ARK: Survival">
  <defs>
    <linearGradient id="bg" x1="0" y1="0" x2="0.8" y2="1"><stop offset="0" stop-color="#0c1830"/><stop offset="1" stop-color="#070b12"/></linearGradient>
    <radialGradient id="acc" cx="0.5" cy="0.34" r="0.7"><stop offset="0" stop-color="#5a9e4b" stop-opacity="0.40"/><stop offset="0.6" stop-color="#5a9e4b" stop-opacity="0.06"/><stop offset="1" stop-color="#5a9e4b" stop-opacity="0"/></radialGradient>
    <radialGradient id="blu" cx="0.92" cy="1" r="0.9"><stop offset="0" stop-color="#0072ff" stop-opacity="0.38"/><stop offset="0.6" stop-color="#0072ff" stop-opacity="0.06"/><stop offset="1" stop-color="#0072ff" stop-opacity="0"/></radialGradient>
    <linearGradient id="beam" x1="0" y1="0" x2="1" y2="0"><stop offset="0" stop-color="#5a9e4b" stop-opacity="0"/><stop offset="0.5" stop-color="#5a9e4b" stop-opacity="0.9"/><stop offset="1" stop-color="#5a9e4b" stop-opacity="0"/></linearGradient>
    <pattern id="grid" width="48" height="48" patternUnits="userSpaceOnUse"><path d="M48 0H0V48" fill="none" stroke="#ffffff" stroke-opacity="0.04" stroke-width="1"/></pattern>
  </defs>
  <rect width="800" height="450" fill="url(#bg)"/>
  <rect width="800" height="450" fill="url(#grid)"/>
  <rect width="800" height="450" fill="url(#acc)"/>
  <rect width="800" height="450" fill="url(#blu)"/>
  <rect x="0" y="0" width="800" height="3" fill="url(#beam)"/>
  <g transform="translate(400,158)">
  <g fill="#5a9e4b" opacity="0.88">
    <ellipse cx="-34" cy="-8" rx="11" ry="27" transform="rotate(-20 -34 -8)"/>
    <ellipse cx="0" cy="-16" rx="11" ry="31"/>
    <ellipse cx="34" cy="-8" rx="11" ry="27" transform="rotate(20 34 -8)"/>
    <ellipse cx="0" cy="36" rx="30" ry="20"/>
  </g></g>
  <g font-family="Inter, system-ui, sans-serif" text-anchor="middle">
    <text x="400" y="300" font-size="14" font-weight="700" letter-spacing="6" fill="#5a9e4b" opacity="0.95">SURVIVAL</text>
    <text x="400" y="344" font-size="32" font-weight="800" letter-spacing="1" fill="#eaf2ff">ARK: Survival</text>
  </g>
</svg>
