<svg xmlns="http://www.w3.org/2000/svg" viewBox="0 0 800 450" width="800" height="450" role="img" aria-label="Satisfactory">
  <defs>
    <linearGradient id="bg" x1="0" y1="0" x2="0.8" y2="1"><stop offset="0" stop-color="#0c1830"/><stop offset="1" stop-color="#070b12"/></linearGradient>
    <radialGradient id="acc" cx="0.5" cy="0.34" r="0.7"><stop offset="0" stop-color="#f0922b" stop-opacity="0.40"/><stop offset="0.6" stop-color="#f0922b" stop-opacity="0.06"/><stop offset="1" stop-color="#f0922b" stop-opacity="0"/></radialGradient>
    <radialGradient id="blu" cx="0.92" cy="1" r="0.9"><stop offset="0" stop-color="#0072ff" stop-opacity="0.38"/><stop offset="0.6" stop-color="#0072ff" stop-opacity="0.06"/><stop offset="1" stop-color="#0072ff" stop-opacity="0"/></radialGradient>
    <linearGradient id="beam" x1="0" y1="0" x2="1" y2="0"><stop offset="0" stop-color="#f0922b" stop-opacity="0"/><stop offset="0.5" stop-color="#f0922b" stop-opacity="0.9"/><stop offset="1" stop-color="#f0922b" stop-opacity="0"/></linearGradient>
    <pattern id="grid" width="48" height="48" patternUnits="userSpaceOnUse"><path d="M48 0H0V48" fill="none" stroke="#ffffff" stroke-opacity="0.04" stroke-width="1"/></pattern>
  </defs>
  <rect width="800" height="450" fill="url(#bg)"/>
  <rect width="800" height="450" fill="url(#grid)"/>
  <rect width="800" height="450" fill="url(#acc)"/>
  <rect width="800" height="450" fill="url(#blu)"/>
  <rect x="0" y="0" width="800" height="3" fill="url(#beam)"/>
  <g transform="translate(400,158)"><g><rect x="-9" y="-74" width="18" height="24" rx="3" fill="#f0922b" opacity="0.85" transform="rotate(0)"/><rect x="-9" y="-74" width="18" height="24" rx="3" fill="#f0922b" opacity="0.85" transform="rotate(45)"/><rect x="-9" y="-74" width="18" height="24" rx="3" fill="#f0922b" opacity="0.85" transform="rotate(90)"/><rect x="-9" y="-74" width="18" height="24" rx="3" fill="#f0922b" opacity="0.85" transform="rotate(135)"/><rect x="-9" y="-74" width="18" height="24" rx="3" fill="#f0922b" opacity="0.85" transform="rotate(180)"/><rect x="-9" y="-74" width="18" height="24" rx="3" fill="#f0922b" opacity="0.85" transform="rotate(225)"/><rect x="-9" y="-74" width="18" height="24" rx="3" fill="#f0922b" opacity="0.85" transform="rotate(270)"/><rect x="-9" y="-74" width="18" height="24" rx="3" fill="#f0922b" opacity="0.85" transform="rotate(315)"/><circle r="50" fill="#f0922b" opacity="0.9"/><circle r="22" fill="#0a1424"/></g></g>
  <g font-family="Inter, system-ui, sans-serif" text-anchor="middle">
    <text x="400" y="300" font-size="14" font-weight="700" letter-spacing="6" fill="#f0922b" opacity="0.95">SIMULATION</text>
    <text x="400" y="344" font-size="32" font-weight="800" letter-spacing="1" fill="#eaf2ff">Satisfactory</text>
  </g>
</svg>
