<svg xmlns="http://www.w3.org/2000/svg" viewBox="0 0 800 450" width="800" height="450" role="img" aria-label="TeamSpeak 3">
  <defs>
    <linearGradient id="bg" x1="0" y1="0" x2="0.8" y2="1"><stop offset="0" stop-color="#0a1a2e"/><stop offset="1" stop-color="#070b12"/></linearGradient>
    <radialGradient id="acc" cx="0.5" cy="0.34" r="0.7"><stop offset="0" stop-color="#22c3d6" stop-opacity="0.42"/><stop offset="0.6" stop-color="#22c3d6" stop-opacity="0.06"/><stop offset="1" stop-color="#22c3d6" stop-opacity="0"/></radialGradient>
    <radialGradient id="blu" cx="0.92" cy="1" r="0.9"><stop offset="0" stop-color="#0072ff" stop-opacity="0.34"/><stop offset="0.6" stop-color="#0072ff" stop-opacity="0.06"/><stop offset="1" stop-color="#0072ff" stop-opacity="0"/></radialGradient>
    <linearGradient id="beam" x1="0" y1="0" x2="1" y2="0"><stop offset="0" stop-color="#22c3d6" stop-opacity="0"/><stop offset="0.5" stop-color="#22c3d6" stop-opacity="0.9"/><stop offset="1" stop-color="#22c3d6" stop-opacity="0"/></linearGradient>
    <pattern id="grid" width="48" height="48" patternUnits="userSpaceOnUse"><path d="M48 0H0V48" fill="none" stroke="#ffffff" stroke-opacity="0.04" stroke-width="1"/></pattern>
  </defs>
  <rect width="800" height="450" fill="url(#bg)"/>
  <rect width="800" height="450" fill="url(#grid)"/>
  <rect width="800" height="450" fill="url(#acc)"/>
  <rect width="800" height="450" fill="url(#blu)"/>
  <rect x="0" y="0" width="800" height="3" fill="url(#beam)"/>
  <g transform="translate(400,148)">
    <rect x="-18" y="-56" width="36" height="64" rx="18" fill="#22c3d6" opacity="0.92"/>
    <path d="M-30 -6 a30 30 0 0 0 60 0" fill="none" stroke="#22c3d6" stroke-width="7" stroke-linecap="round" opacity="0.92"/>
    <rect x="-4" y="24" width="8" height="22" rx="3" fill="#22c3d6" opacity="0.92"/>
    <rect x="-24" y="44" width="48" height="9" rx="4" fill="#22c3d6" opacity="0.92"/>
  </g>
  <g font-family="Inter, system-ui, sans-serif" text-anchor="middle">
    <text x="400" y="300" font-size="14" font-weight="700" letter-spacing="6" fill="#22c3d6" opacity="0.95">VOICE</text>
    <text x="400" y="344" font-size="32" font-weight="800" letter-spacing="1" fill="#eaf2ff">TeamSpeak 3</text>
  </g>
</svg>
