<svg xmlns="http://www.w3.org/2000/svg" viewBox="0 0 800 450" width="800" height="450" role="img" aria-label="Team Fortress 2">
  <defs>
    <linearGradient id="bg" x1="0" y1="0" x2="0.8" y2="1"><stop offset="0" stop-color="#0c1830"/><stop offset="1" stop-color="#070b12"/></linearGradient>
    <radialGradient id="acc" cx="0.5" cy="0.34" r="0.7"><stop offset="0" stop-color="#c8643c" stop-opacity="0.40"/><stop offset="0.6" stop-color="#c8643c" stop-opacity="0.06"/><stop offset="1" stop-color="#c8643c" stop-opacity="0"/></radialGradient>
    <radialGradient id="blu" cx="0.92" cy="1" r="0.9"><stop offset="0" stop-color="#0072ff" stop-opacity="0.38"/><stop offset="0.6" stop-color="#0072ff" stop-opacity="0.06"/><stop offset="1" stop-color="#0072ff" stop-opacity="0"/></radialGradient>
    <linearGradient id="beam" x1="0" y1="0" x2="1" y2="0"><stop offset="0" stop-color="#c8643c" stop-opacity="0"/><stop offset="0.5" stop-color="#c8643c" stop-opacity="0.9"/><stop offset="1" stop-color="#c8643c" stop-opacity="0"/></linearGradient>
    <pattern id="grid" width="48" height="48" patternUnits="userSpaceOnUse"><path d="M48 0H0V48" fill="none" stroke="#ffffff" stroke-opacity="0.04" stroke-width="1"/></pattern>
  </defs>
  <rect width="800" height="450" fill="url(#bg)"/>
  <rect width="800" height="450" fill="url(#grid)"/>
  <rect width="800" height="450" fill="url(#acc)"/>
  <rect width="800" height="450" fill="url(#blu)"/>
  <rect x="0" y="0" width="800" height="3" fill="url(#beam)"/>
  <g transform="translate(400,150)" fill="#c8643c" opacity="0.9">
    <circle r="62" fill="none" stroke="#c8643c" stroke-width="9" opacity="0.5"/>
    <path d="M0 -46 L13 -14 L47 -14 L20 7 L30 41 L0 21 L-30 41 L-20 7 L-47 -14 L-13 -14 Z"/>
  </g>
  <g font-family="Inter, system-ui, sans-serif" text-anchor="middle">
    <text x="400" y="300" font-size="14" font-weight="700" letter-spacing="6" fill="#c8643c" opacity="0.95">SHOOTER</text>
    <text x="400" y="344" font-size="36" font-weight="800" letter-spacing="1" fill="#eaf2ff">Team Fortress 2</text>
  </g>
</svg>
